HIERARCHY
ROOT hip
{
	OFFSET	0.00  0.00  0.00 
	CHANNELS 6 Xposition Yposition Zposition Xrotation Zrotation Yrotation
	JOINT waist
	{
		OFFSET	0.000000 2.191865 -0.079388
		CHANNELS 3 Xrotation Zrotation Yrotation
		JOINT abdomen
		{
			OFFSET	0.000000 2.770984 0.119082
			CHANNELS 3 Xrotation Zrotation Yrotation
			JOINT chest
			{
				OFFSET	0.000000 2.879627 -0.290598
				CHANNELS 3 Xrotation Zrotation Yrotation
				JOINT neck
				{
					OFFSET	0.000000 12.342733 -1.613748
					CHANNELS 3 Xrotation Zrotation Yrotation
					JOINT head
					{
						OFFSET	0.000000 4.485597 1.807195
						CHANNELS 3 Xrotation Zrotation Yrotation
						End Site
						{
							OFFSET 0.000000 7.191734 2.024398
						}
					}
				}
				JOINT lCollar
				{
					OFFSET	1.858774 10.237258 -1.915852
					CHANNELS 3 Zrotation Yrotation Xrotation
					JOINT lShldr
					{
						OFFSET	6.103279 0.000102 -0.038601
						CHANNELS 3 Zrotation Yrotation Xrotation
						JOINT lForeArm
						{
							OFFSET	10.574100 -0.365985 -0.655940
							CHANNELS 3 Zrotation Yrotation Xrotation
							JOINT lHand
							{
								OFFSET	13.213392 -0.641131 0.276866
								CHANNELS 3 Zrotation Yrotation Xrotation
								JOINT lThumb1
								{
									OFFSET	1.920964 -1.225712 1.722395
									CHANNELS 3 Zrotation Yrotation Xrotation
									JOINT lThumb2
									{
										OFFSET	0.248544 -0.143036 0.768265
										CHANNELS 3 Zrotation Yrotation Xrotation
										JOINT lThumb3
										{
											OFFSET	0.628484 -0.225174 0.508305
											CHANNELS 3 Zrotation Yrotation Xrotation
											End Site
											{
												OFFSET 0.831712 -0.207978 0.609962
											}
										}
									}
								}
								JOINT lIndex1
								{
									OFFSET	5.093442 -0.710319 1.829884
									CHANNELS 3 Zrotation Yrotation Xrotation
									JOINT lIndex2
									{
										OFFSET	0.889470 -0.051998 0.127073
										CHANNELS 3 Zrotation Yrotation Xrotation
										JOINT lIndex3
										{
											OFFSET	0.889570 -0.155981 0.127073
											CHANNELS 3 Zrotation Yrotation Xrotation
											End Site
											{
												OFFSET 0.797115 -0.294470 0.076252
											}
										}
									}
								}
								JOINT lMid1
								{
									OFFSET	5.154641 -0.519844 0.864111
									CHANNELS 3 Zrotation Yrotation Xrotation
									JOINT lMid2
									{
										OFFSET	0.928821 -0.051992 0.050831
										CHANNELS 3 Zrotation Yrotation Xrotation
										JOINT lMid3
										{
											OFFSET	0.984253 -0.311865 0.050831
											CHANNELS 3 Zrotation Yrotation Xrotation
											End Site
											{
												OFFSET 0.779717 -0.606438 -0.050831
											}
										}
									}
								}
								JOINT lRing1
								{
									OFFSET	4.924408 -0.754930 -0.235503
									CHANNELS 3 Zrotation Yrotation Xrotation
									JOINT lRing2
									{
										OFFSET	0.981624 -0.036924 -0.108278
										CHANNELS 3 Zrotation Yrotation Xrotation
										JOINT lRing3
										{
											OFFSET	0.805613 -0.205247 -0.041717
											CHANNELS 3 Zrotation Yrotation Xrotation
											End Site
											{
												OFFSET 0.667431 -0.470481 -0.035991
											}
										}
									}
								}
								JOINT lPinky1
								{
									OFFSET	4.535460 -0.816635 -1.006206
									CHANNELS 3 Zrotation Yrotation Xrotation
									JOINT lPinky2
									{
										OFFSET	0.690596 -0.064334 -0.168800
										CHANNELS 3 Zrotation Yrotation Xrotation
										JOINT lPinky3
										{
											OFFSET	0.598039 -0.111176 -0.071973
											CHANNELS 3 Zrotation Yrotation Xrotation
											End Site
											{
												OFFSET 0.422025 -0.290925 -0.035981
											}
										}
									}
								}
							}
						}
					}
				}
				JOINT rCollar
				{
					OFFSET	-1.858774 10.237258 -1.915852
					CHANNELS 3 Zrotation Yrotation Xrotation
					JOINT rShldr
					{
						OFFSET	-6.103279 0.000102 -0.038601
						CHANNELS 3 Zrotation Yrotation Xrotation
						JOINT rForeArm
						{
							OFFSET	-10.574100 -0.365985 -0.655940
							CHANNELS 3 Zrotation Yrotation Xrotation
							JOINT rHand
							{
								OFFSET	-13.213392 -0.641131 0.276866
								CHANNELS 3 Zrotation Yrotation Xrotation
								JOINT rIndex1
								{
									OFFSET	-5.093442 -0.710319 1.829884
									CHANNELS 3 Zrotation Yrotation Xrotation
									JOINT rIndex2
									{
										OFFSET	-0.889470 -0.051998 0.127073
										CHANNELS 3 Zrotation Yrotation Xrotation
										JOINT rIndex3
										{
											OFFSET	-0.889570 -0.155981 0.127073
											CHANNELS 3 Zrotation Yrotation Xrotation
											End Site
											{
												OFFSET -0.797115 -0.294470 0.076252
											}
										}
									}
								}
								JOINT rThumb1
								{
									OFFSET	-1.920964 -1.225712 1.722395
									CHANNELS 3 Zrotation Yrotation Xrotation
									JOINT rThumb2
									{
										OFFSET	-0.248544 -0.143036 0.768265
										CHANNELS 3 Zrotation Yrotation Xrotation
										JOINT rThumb3
										{
											OFFSET	-0.628484 -0.225174 0.508305
											CHANNELS 3 Zrotation Yrotation Xrotation
											End Site
											{
												OFFSET -0.831712 -0.207978 0.609962
											}
										}
									}
								}
								JOINT rMid1
								{
									OFFSET	-5.154641 -0.519844 0.864111
									CHANNELS 3 Zrotation Yrotation Xrotation
									JOINT rMid2
									{
										OFFSET	-0.928821 -0.051992 0.050831
										CHANNELS 3 Zrotation Yrotation Xrotation
										JOINT rMid3
										{
											OFFSET	-0.984253 -0.311865 0.050831
											CHANNELS 3 Zrotation Yrotation Xrotation
											End Site
											{
												OFFSET -0.779717 -0.606438 -0.050831
											}
										}
									}
								}
								JOINT rRing1
								{
									OFFSET	-4.924408 -0.754930 -0.235503
									CHANNELS 3 Zrotation Yrotation Xrotation
									JOINT rRing2
									{
										OFFSET	-0.981624 -0.036924 -0.108278
										CHANNELS 3 Zrotation Yrotation Xrotation
										JOINT rRing3
										{
											OFFSET	-0.805613 -0.205247 -0.041717
											CHANNELS 3 Zrotation Yrotation Xrotation
											End Site
											{
												OFFSET -0.667431 -0.470481 -0.035991
											}
										}
									}
								}
								JOINT rPinky1
								{
									OFFSET	-4.535460 -0.816635 -1.006206
									CHANNELS 3 Zrotation Yrotation Xrotation
									JOINT rPinky2
									{
										OFFSET	-0.690596 -0.064334 -0.168800
										CHANNELS 3 Zrotation Yrotation Xrotation
										JOINT rPinky3
										{
											OFFSET	-0.598039 -0.111176 -0.071973
											CHANNELS 3 Zrotation Yrotation Xrotation
											End Site
											{
												OFFSET -0.422025 -0.290925 -0.035981
											}
										}
									}
								}
							}
						}
					}
				}
			}
		}
	}
	JOINT lThigh
	{
		OFFSET	5.761895 -0.730553 0.000101
		CHANNELS 3 Xrotation Zrotation Yrotation
		JOINT lShin
		{
			OFFSET	-1.171020 -18.459274 1.627449
			CHANNELS 3 Xrotation Zrotation Yrotation
			JOINT lFoot
			{
				OFFSET	-0.883715 -16.872776 -3.357785
				CHANNELS 3 Xrotation Zrotation Yrotation
				JOINT lToe
				{
					OFFSET	1.287613 -2.778491 2.836049
					CHANNELS 3 Xrotation Yrotation Zrotation
					End Site
					{
						OFFSET 1.362641 -0.436631 3.828194
					}
				}
			}
		}
	}
	JOINT rThigh
	{
		OFFSET	-5.761895 -0.730553 0.000101
		CHANNELS 3 Xrotation Zrotation Yrotation
		JOINT rShin
		{
			OFFSET	1.171020 -18.459274 1.627449
			CHANNELS 3 Xrotation Zrotation Yrotation
			JOINT rFoot
			{
				OFFSET	0.883715 -16.872776 -3.357785
				CHANNELS 3 Xrotation Zrotation Yrotation
				JOINT rToe
				{
					OFFSET	-1.287613 -2.778491 2.836049
					CHANNELS 3 Xrotation Yrotation Zrotation
					End Site
					{
						OFFSET -1.362641 -0.436631 3.828194
					}
				}
			}
		}
	}
}
MOTION
Frames:     4
Frame Time: 0.033333
0.809254 38.725624 -1.455321 -14.043257 2.277309 -15.968705 -1.718755 0.117080 -0.005012 17.981958 -15.351659 -16.077431 11.145150 -14.140867 38.736248 -12.693490 -5.270807 1.266686 -5.071939 -12.791654 -1.668944 -3.529966 -18.954180 -8.056646 -88.891373 -27.644394 66.890038 -1.048634 -37.403748 -63.880707 -20.428926 4.278058 1.405782 -13.192130 9.315828 19.846773 5.493439 -13.369853 6.184131 0.211392 27.061361 7.512866 9.545803 -13.437943 0.512510 -45.116188 1.857844 5.929315 -26.066353 0.109803 2.338374 7.996794 -7.006692 -16.425892 -45.403019 3.378249 3.044683 -26.212753 5.632829 3.291367 11.139582 -4.505971 -25.472322 -45.867321 11.447015 2.759825 -26.110136 -0.731237 -1.785301 12.921543 11.730788 -12.638864 -44.563988 -6.116645 -7.723901 -26.115219 0.301676 -1.795136 -6.535365 6.909666 -16.992659 40.416298 -9.123407 59.717194 -1.561115 45.082527 -83.940300 39.515072 -2.356907 3.130648 10.815765 -10.090210 -2.582704 16.069426 0.197003 2.259741 16.350636 0.039854 1.476132 1.643114 3.402046 -3.387612 1.589822 9.160181 -1.288581 -5.032716 19.792627 1.674748 35.121735 -18.977953 -5.455759 10.138370 0.099598 0.420066 15.113538 -6.754369 -0.798460 33.247684 -9.118732 -6.053727 21.301500 2.502220 -5.733022 13.619839 -2.033891 -0.845514 44.307903 -9.428686 -22.469521 27.561775 0.902653 -3.310085 20.466295 -0.459177 -1.928152 -7.746040 -8.760252 13.164241 38.624310 -1.686373 1.513133 -7.863689 10.650723 -7.129679 -15.995469 -1.104279 5.542159 30.957848 -20.724300 21.364820 13.693103 -0.673018 0.782420 5.719450 -0.916275 -2.966574 -36.443363 4.677157 -11.936725 
0.000000 40.137459 -0.646068 -8.350521 1.988674 -13.980918 -1.171879 0.107324 -0.004594 18.805214 -14.108171 -14.500256 14.661722 -10.096952 26.453753 -11.954517 -5.087877 1.224514 -5.345216 -12.491462 -1.359772 -3.393586 -18.368120 -8.123749 -88.130005 -22.656244 60.082943 10.821637 -36.143169 -47.809483 -18.765669 4.090992 1.636696 -3.178396 7.091413 -11.590822 1.297879 -17.215055 -0.869156 -8.729282 9.450003 9.924164 -24.696222 -17.531252 -8.099955 -10.697585 -15.145410 -0.965067 -8.541617 -12.308083 -3.704714 -43.695370 -20.119917 -1.904684 -8.306655 -12.736156 -3.649896 -4.484939 -5.902395 -9.688545 -52.614418 -33.677879 -10.067592 -5.976360 -6.550849 -5.708220 11.006489 -0.141850 -0.054602 -35.776012 -34.930534 -22.363241 -13.894288 1.841418 -0.579704 10.716735 -5.650254 -3.551552 -6.336064 6.471377 -16.269367 45.345112 -5.014287 56.530132 -16.388281 40.225822 -64.499596 37.926754 -2.649684 3.074987 13.057512 24.580988 10.370405 10.844040 11.617690 -0.524266 3.635575 11.245292 -3.836113 -0.243164 -18.618364 -9.526505 8.031823 15.799241 0.768618 6.046443 -7.605417 7.006209 26.291359 26.512819 -0.156957 13.799385 9.303255 -2.330003 -5.040507 6.545506 -4.726067 44.134754 39.502457 -13.544925 4.294230 0.559866 2.107788 -12.722513 0.032900 15.386930 24.416355 46.781609 -29.547403 25.535597 -10.959176 10.449414 17.560965 4.323245 -4.507026 -1.593920 -1.066446 -12.415730 27.447741 -14.768800 -2.135995 20.142754 -2.854425 9.100221 -16.257248 -1.599252 5.458000 -32.380653 9.007996 8.809628 8.611708 11.376959 -1.099313 11.639920 9.699052 -8.440808 -33.240410 3.989923 -10.988728 
0.000000 40.137459 -0.646068 -1.280290 1.642454 -11.515655 -0.478519 0.097567 -0.004177 19.901218 -12.614991 -12.558526 18.468204 -5.164229 12.028079 -11.127256 -4.886833 1.174186 -5.646029 -12.149867 -1.011491 -3.247427 -17.713692 -8.200495 -87.205391 -16.538425 51.794868 24.673088 -34.772251 -28.726753 -16.897438 3.871108 1.883289 -9.267362 3.454184 3.357585 2.431704 -20.147923 -2.911651 -7.374599 10.008337 9.003222 -36.445648 -17.138144 -5.894570 -12.776439 -9.132934 0.569214 -10.667281 -5.001387 -0.713752 -52.371716 -14.163793 -2.350452 -9.545767 -4.434934 -0.898597 -3.400624 0.616162 -3.951499 -61.095306 -26.834173 -11.684874 -6.623328 2.239790 -3.053160 10.957478 2.974565 3.340454 -45.015560 -30.457663 -22.630514 -14.056697 9.837719 1.710023 9.051183 -1.273259 -0.541867 -6.116668 5.964831 -15.449607 51.345669 0.065819 52.619812 -33.607765 34.736897 -41.219177 36.142467 -2.998662 3.008455 24.361435 22.032038 10.657868 13.247595 3.468943 1.188830 6.655875 4.875656 -1.221138 3.737139 -14.931465 4.756116 4.257766 16.392805 -1.583723 4.220753 -8.590620 5.907940 35.034939 20.793306 0.523316 14.794704 -2.144709 1.278275 -4.254514 1.361954 -1.114862 48.782043 30.502848 -12.632126 7.635636 -8.955050 3.842263 -14.338270 -2.269633 15.865455 33.670792 39.648510 -26.243801 28.230673 -22.089581 11.010718 17.773540 3.892026 -4.302317 2.586349 -0.438781 -13.342361 37.854145 -17.360380 -3.231263 5.429658 -10.832645 10.013197 -17.056046 -2.378213 5.474883 -37.097389 6.628695 8.486353 15.880522 13.852425 -1.285199 23.276747 15.678666 -11.310438 -25.844793 2.620559 -8.657204 
0.000000 40.137459 -0.646068 6.296388 1.273186 -8.875099 0.302732 0.078054 -0.003341 21.181515 -11.023807 -10.458027 21.398350 -0.842981 -0.330212 -10.300285 -4.685781 1.123902 -5.946539 -11.808247 -0.665198 -3.091494 -17.059254 -8.277169 -86.222786 -10.059581 43.054234 36.660591 -33.198910 -13.461763 -15.028212 3.662328 2.140715 -12.949586 -1.755445 6.493055 5.787037 -20.586239 -5.599258 -4.536119 10.508670 6.784697 -36.543861 -25.526138 -5.051647 -9.577343 -2.689243 1.390750 -10.104813 0.496467 1.349706 -49.462921 -18.210049 -3.329779 -5.712784 2.382349 1.141982 -0.326427 5.070787 0.265533 -59.342762 -28.609890 -12.923488 -1.581695 7.664245 -0.884548 12.579936 5.314131 6.347755 -42.478428 -34.390392 -24.810646 -9.511595 15.413518 4.185311 9.455466 2.195132 2.023273 -5.887538 5.467967 -14.638768 57.735851 5.513278 48.460667 -48.339954 29.510271 -22.366802 34.358761 -3.338854 2.948561 21.777794 27.735115 8.675753 13.171945 -2.104937 2.205848 6.732579 -0.448797 0.718242 8.839941 -8.585254 7.398243 -2.319387 17.063793 -5.906157 1.509719 -8.929632 3.815806 32.749783 24.869259 0.594245 10.936695 -10.515232 3.828736 -5.824179 -2.748743 1.777944 46.564831 31.398193 -11.332460 3.333284 -15.414300 5.326442 -16.608082 -3.827395 15.861753 32.741638 41.295563 -26.617504 21.257225 -30.714796 12.429029 17.966679 3.584650 -4.124632 11.098368 -0.132901 -16.087934 41.437885 -19.227983 -1.450312 0.471280 -12.878390 7.220893 -18.326069 -3.362695 5.576723 -41.041370 4.171289 9.471287 21.458765 16.030586 -2.149683 29.565660 17.783098 -10.920382 -15.398681 1.208007 -5.107093 
